<svg width="208" height="208" viewBox="0 0 208 208" fill="none" xmlns="http://www.w3.org/2000/svg">
<g opacity="0.6">
<path opacity="0.6" d="M8 16C12.4183 16 16 12.4183 16 8C16 3.58172 12.4183 0 8 0C3.58172 0 0 3.58172 0 8C0 12.4183 3.58172 16 8 16Z" fill="#CCDAE2"/>
<path opacity="0.6" d="M40 16C44.4183 16 48 12.4183 48 8C48 3.58172 44.4183 0 40 0C35.5817 0 32 3.58172 32 8C32 12.4183 35.5817 16 40 16Z" fill="#CCDAE2"/>
<path opacity="0.6" d="M72 16C76.4183 16 80 12.4183 80 8C80 3.58172 76.4183 0 72 0C67.5817 0 64 3.58172 64 8C64 12.4183 67.5817 16 72 16Z" fill="#CCDAE2"/>
<path opacity="0.6" d="M104 16C108.418 16 112 12.4183 112 8C112 3.58172 108.418 0 104 0C99.5817 0 96 3.58172 96 8C96 12.4183 99.5817 16 104 16Z" fill="#CCDAE2"/>
<path opacity="0.6" d="M136 16C140.418 16 144 12.4183 144 8C144 3.58172 140.418 0 136 0C131.582 0 128 3.58172 128 8C128 12.4183 131.582 16 136 16Z" fill="#CCDAE2"/>
<path opacity="0.6" d="M168 16C172.418 16 176 12.4183 176 8C176 3.58172 172.418 0 168 0C163.582 0 160 3.58172 160 8C160 12.4183 163.582 16 168 16Z" fill="#CCDAE2"/>
<path opacity="0.6" d="M200 16C204.418 16 208 12.4183 208 8C208 3.58172 204.418 0 200 0C195.582 0 192 3.58172 192 8C192 12.4183 195.582 16 200 16Z" fill="#CCDAE2"/>
</g>
<g opacity="0.6">
<path opacity="0.6" d="M8 48C12.4183 48 16 44.4183 16 40C16 35.5817 12.4183 32 8 32C3.58172 32 0 35.5817 0 40C0 44.4183 3.58172 48 8 48Z" fill="#CCDAE2"/>
<path opacity="0.6" d="M40 48C44.4183 48 48 44.4183 48 40C48 35.5817 44.4183 32 40 32C35.5817 32 32 35.5817 32 40C32 44.4183 35.5817 48 40 48Z" fill="#CCDAE2"/>
<path opacity="0.6" d="M72 48C76.4183 48 80 44.4183 80 40C80 35.5817 76.4183 32 72 32C67.5817 32 64 35.5817 64 40C64 44.4183 67.5817 48 72 48Z" fill="#CCDAE2"/>
<path opacity="0.6" d="M104 48C108.418 48 112 44.4183 112 40C112 35.5817 108.418 32 104 32C99.5817 32 96 35.5817 96 40C96 44.4183 99.5817 48 104 48Z" fill="#CCDAE2"/>
<path opacity="0.6" d="M136 48C140.418 48 144 44.4183 144 40C144 35.5817 140.418 32 136 32C131.582 32 128 35.5817 128 40C128 44.4183 131.582 48 136 48Z" fill="#CCDAE2"/>
<path opacity="0.6" d="M168 48C172.418 48 176 44.4183 176 40C176 35.5817 172.418 32 168 32C163.582 32 160 35.5817 160 40C160 44.4183 163.582 48 168 48Z" fill="#CCDAE2"/>
<path opacity="0.6" d="M200 48C204.418 48 208 44.4183 208 40C208 35.5817 204.418 32 200 32C195.582 32 192 35.5817 192 40C192 44.4183 195.582 48 200 48Z" fill="#CCDAE2"/>
</g>
</svg>
