<?xml version="1.0" encoding="UTF-8"?>
<!DOCTYPE svg PUBLIC "-//W3C//DTD SVG 1.1//EN" "http://www.w3.org/Graphics/SVG/1.1/DTD/svg11.dtd">
<!-- Creator: CorelDRAW -->
<svg xmlns="http://www.w3.org/2000/svg" xml:space="preserve" width="227px" height="193px" version="1.1" style="shape-rendering:geometricPrecision; text-rendering:geometricPrecision; image-rendering:optimizeQuality; fill-rule:evenodd; clip-rule:evenodd"
viewBox="0 0 53.1 45.13"
 xmlns:xlink="http://www.w3.org/1999/xlink"
 xmlns:xodm="http://www.corel.com/coreldraw/odm/2003">
 <defs>
  <style type="text/css">
   <![CDATA[
    .fil1 {fill:#FEFEFE}
    .fil0 {fill:#009846}
    .fil2 {fill:#006096}
   ]]>
  </style>
 </defs>
 <g id="Слой_x0020_1">
  <metadata id="CorelCorpID_0Corel-Layer"/>
  <g id="_2352246272624">
   <rect class="fil0" y="20.72" width="3.49" height="24.4"/>
   <rect class="fil0" transform="matrix(3.38721E-15 -0.126312 0.127894 3.34533E-15 1.57723E-05 45.1264)" width="27.62" height="190.53"/>
   <rect class="fil0" x="7.11" y="20.72" width="17.25" height="17.25"/>
   <g>
    <rect class="fil1" x="18.84" y="24.45" width="4.42" height="4.42"/>
    <rect class="fil1" x="18.84" y="29.85" width="4.42" height="4.42"/>
   </g>
   <polygon class="fil0" points="24.37,0.03 24.37,19.09 0,19.09 "/>
   <polygon class="fil0" points="3.52,6.29 8.06,6.29 8.06,10.86 4.5,13.6 3.52,13.6 "/>
   <rect class="fil2" x="37.86" y="0.03" width="2.65" height="45.1"/>
   <rect class="fil2" x="50.45" y="5.87" width="2.65" height="39.26"/>
   <rect class="fil2" transform="matrix(2.25114E-15 -0.126312 0.0779745 3.06889E-15 25.258 45.1264)" width="20.96" height="357.04"/>
   <rect class="fil2" transform="matrix(2.25114E-15 -0.126312 0.0779745 3.06889E-15 25.258 40.6261)" width="20.96" height="357.04"/>
   <polygon class="fil2" points="25.23,7.36 25.26,4.45 51.58,16.73 50.46,19.13 "/>
   <polygon class="fil2" points="25.26,2.92 25.29,0 51.61,12.28 50.49,14.68 "/>
  </g>
 </g>
</svg>
